<svg id="Layer_1" data-name="Layer 1" xmlns="http://www.w3.org/2000/svg" viewBox="0 0 449.18 176.18"><defs><style>.cls-1{fill:#46a5df;}.cls-2{fill:#c02f25;}.cls-3{fill:#f9e035;}.cls-4{fill:#6aa745;}.cls-5{fill:#773981;}.cls-6{fill:#d68528;}.cls-7{fill:#716450;}</style></defs><title>PCF_CMYK_horizontal-2</title><circle class="cls-1" cx="48.19" cy="160.23" r="5.95" transform="translate(-118.66 126.9) rotate(-63.22)"/><path class="cls-1" d="M82.84,180.33c-3.41,0-12.91-1.9-20.51-14.29-1.93-3.14-3.44-8.54-11-12.2-4.39-2.14-8.74-.31-12.91.16s-12.22,1.12-15.56-4.77c-.41-.72-.76-1.79.37-1.23a14.16,14.16,0,0,0,8.5,1c3.64-.86,15.39-7.11,22.15-4,6.55,3,7.92,4.64,12.34,14.45s11.37,17.16,16.89,19.69C84.13,179.48,84.53,180.12,82.84,180.33Z" transform="translate(-2.09 -4.15)"/><path class="cls-1" d="M87.18,94.14c.08,16.29-10.28,57.27-32.38,49.87-9.07-3-13-15.86-6.15-27.83.57-1,1.33-1.47,1,0-.67,2.5-2,12.6,6,14.9,7.51,2.18,19.88-7.46,30.27-35.45C86.45,94,87,92.43,87.18,94.14Z" transform="translate(-2.09 -4.15)"/><path class="cls-2" d="M53.48,17a6,6,0,1,1-8.22-1.86A6,6,0,0,1,53.48,17Z" transform="translate(-2.09 -4.15)"/><path class="cls-2" d="M13.39,39.56c1.77-2.92,8.26-10.09,22.8-10.24,3.69,0,9.09,1.44,16.1-3.12,4.1-2.66,4.76-7.34,6.5-11.16S64.13,4,70.89,4.16c.83,0,1.93.27.87.94a14.17,14.17,0,0,0-5.19,6.81c-1.13,3.56-1.82,16.86-8,21-6,4-8.05,4.41-18.74,3.15S19.28,37,14.26,40.45C13.45,41.09,12.7,41.12,13.39,39.56Z" transform="translate(-2.09 -4.15)"/><path class="cls-2" d="M85.35,87.65C71.34,79.33,41.24,49.34,59,34.19c7.26-6.22,20.27-3,27,9,.56,1,.57,1.9-.46.84-1.8-1.85-9.78-8.19-15.84-2.55C64,46.83,66.13,62.43,84.78,85.75,85.88,87.12,86.9,88.39,85.35,87.65Z" transform="translate(-2.09 -4.15)"/><path class="cls-3" d="M169.33,95.78a6,6,0,1,1,5.53-6.35A6,6,0,0,1,169.33,95.78Z" transform="translate(-2.09 -4.15)"/><path class="cls-3" d="M168.49,49.78c1.73,2.94,5,12.06-1.8,24.93C165,78,161.11,82,161.8,90.36c.4,4.87,4.21,7.67,6.73,11s7.21,9.94,3.85,15.82c-.41.72-1.16,1.57-1.24.32a14.1,14.1,0,0,0-3.53-7.8c-2.59-2.69-14-9.6-14.72-17-.73-7.19-.06-9.19,6.11-18s8.94-18.54,8.29-24.58C167.1,49.11,167.44,48.43,168.49,49.78Z" transform="translate(-2.09 -4.15)"/><path class="cls-3" d="M91.76,90.14c14-8.39,54.9-20.47,59.85,2.31,2,9.34-7,19.24-20.78,19.51-1.15,0-1.94-.4-.51-.81,2.48-.7,11.85-4.73,9.76-12.74-2-7.56-17-13.24-46.38-7.87C92,90.85,90.37,91.15,91.76,90.14Z" transform="translate(-2.09 -4.15)"/><path class="cls-4" d="M133.9,157.46a6,6,0,1,0-2.72,8A6,6,0,0,0,133.9,157.46Z" transform="translate(-2.09 -4.15)"/><path class="cls-4" d="M93.69,179.81c3.41,0,12.93-1.75,20.67-14.06,2-3.13,3.53-8.5,11.09-12.08,4.41-2.1,8.74-.21,12.91.3s12.21,1.25,15.61-4.6c.42-.72.78-1.79-.35-1.23a14.13,14.13,0,0,1-8.52.86c-3.63-.89-15.32-7.28-22.1-4.21-6.58,3-8,4.56-12.51,14.31s-11.56,17-17.1,19.5C92.42,178.95,92,179.57,93.69,179.81Z" transform="translate(-2.09 -4.15)"/><path class="cls-4" d="M89.9,93.53c-.25,16.29,10,57.43,32.23,50.28,9.1-2.94,13.13-15.73,6.45-27.77-.55-1-1.32-1.47-1,0,.64,2.51,1.86,12.62-6.12,14.83C114,132.92,101.32,123.1,91.22,95,90.62,93.36,90.08,91.82,89.9,93.53Z" transform="translate(-2.09 -4.15)"/><path class="cls-5" d="M7.63,96.23A6,6,0,1,0,2.1,89.88,6,6,0,0,0,7.63,96.23Z" transform="translate(-2.09 -4.15)"/><path class="cls-5" d="M8.45,50.23c-1.73,2.94-5,12.06,1.81,24.93,1.72,3.27,5.58,7.31,4.9,15.65-.4,4.87-4.2,7.67-6.73,11s-7.2,9.94-3.84,15.82c.41.72,1.15,1.57,1.24.31a14.13,14.13,0,0,1,3.53-7.79c2.59-2.7,14-9.61,14.72-17,.72-7.19.06-9.19-6.12-18S9,56.62,9.66,50.58C9.84,49.56,9.5,48.88,8.45,50.23Z" transform="translate(-2.09 -4.15)"/><path class="cls-5" d="M84.34,90.18c-14-8.39-54-20.08-59,2.71-2,9.34,7,19.24,20.79,19.5,1.14,0,1.94-.4.51-.81-2.49-.71-11.85-4.72-9.77-12.73,2-7.56,16.13-13.61,45.51-8.26C84.13,90.9,85.73,91.2,84.34,90.18Z" transform="translate(-2.09 -4.15)"/><ellipse class="cls-6" cx="126.42" cy="19.57" rx="5.96" ry="5.95" transform="translate(43.12 114.26) rotate(-59.4)"/><path class="cls-6" d="M162,37.93c-1.85-2.87-8.55-9.85-23.09-9.58-3.69.07-9,1.7-16.19-2.65-4.18-2.54-5-7.2-6.82-11S110.27,3.84,103.52,4.21c-.83,0-1.93.33-.84,1a14.13,14.13,0,0,1,5.39,6.65c1.24,3.53,2.31,16.8,8.6,20.8,6.1,3.87,8.18,4.17,18.82,2.61s20.58.32,25.68,3.61C162,39.46,162.76,39.47,162,37.93Z" transform="translate(-2.09 -4.15)"/><path class="cls-6" d="M91.3,88.2c13.77-8.72,43.16-39.69,25-54.32-7.44-6-20.34-2.36-26.75,9.82-.53,1-.51,1.91.49.82,1.74-1.91,9.53-8.47,15.76-3,5.88,5.15,4,20.92-14,44.77C90.75,87.69,89.76,89,91.3,88.2Z" transform="translate(-2.09 -4.15)"/><path class="cls-7" d="M204.29,26a39.57,39.57,0,0,1,7.35-.62c3.79,0,6.56.88,8.31,2.46A8,8,0,0,1,222.6,34a8.6,8.6,0,0,1-2.33,6.34c-2,2.16-5.33,3.25-9.07,3.25a13.27,13.27,0,0,1-3.08-.26V55.24h-3.83Zm3.83,14.26a13,13,0,0,0,3.17.31c4.66,0,7.43-2.29,7.43-6.3s-2.77-5.85-7-5.85a19.26,19.26,0,0,0-3.61.31Z" transform="translate(-2.09 -4.15)"/><path class="cls-7" d="M228.5,45.91l-3.08,9.33h-4l10.08-29.66h4.62l10.12,29.66h-4.09L239,45.91Zm9.73-3-2.95-8.54c-.62-1.94-1.06-3.7-1.49-5.41h-.14c-.4,1.71-.88,3.57-1.45,5.37l-2.91,8.58Z" transform="translate(-2.09 -4.15)"/><path class="cls-7" d="M250.16,50.58A13,13,0,0,0,257,52.51c3.91,0,6.21-2,6.21-5.06,0-2.73-1.59-4.36-5.59-5.85-4.84-1.76-7.83-4.31-7.83-8.45,0-4.62,3.83-8.05,9.59-8.05a13.24,13.24,0,0,1,6.51,1.45l-1.06,3.12a11,11,0,0,0-5.59-1.41c-4.05,0-5.59,2.42-5.59,4.45,0,2.77,1.8,4.14,5.9,5.72,5,2,7.53,4.36,7.53,8.72,0,4.57-3.34,8.58-10.34,8.58a15.33,15.33,0,0,1-7.57-1.93Z" transform="translate(-2.09 -4.15)"/><path class="cls-7" d="M277.13,45.91l-3.08,9.33h-4l10.08-29.66h4.62l10.12,29.66h-4.09l-3.17-9.33Zm9.73-3-3-8.54c-.61-1.94-1.05-3.7-1.49-5.41h-.13c-.4,1.71-.88,3.57-1.45,5.37l-2.91,8.58Z" transform="translate(-2.09 -4.15)"/><path class="cls-7" d="M299.23,26a56.1,56.1,0,0,1,8.18-.62c5.5,0,9.42,1.23,12,3.65s4.23,5.9,4.23,10.69-1.54,8.8-4.27,11.53-7.39,4.27-13.16,4.27a53.63,53.63,0,0,1-7-.35Zm3.87,26.27a24.63,24.63,0,0,0,3.87.18c8.18,0,12.63-4.57,12.63-12.58,0-7.08-3.91-11.44-12-11.44a21.8,21.8,0,0,0-4.49.4Z" transform="translate(-2.09 -4.15)"/><path class="cls-7" d="M343.89,41.34H332.41V52h12.85v3.21H328.53V25.58H344.6v3.21H332.41v9.38h11.49Z" transform="translate(-2.09 -4.15)"/><path class="cls-7" d="M350.23,55.24V25.58h4.22l9.46,15a80,80,0,0,1,5.28,9.64l.13,0c-.35-4-.44-7.57-.44-12.15V25.58h3.61V55.24h-3.87l-9.42-15a87.51,87.51,0,0,1-5.5-9.9l-.13,0c.22,3.74.26,7.3.26,12.23V55.24Z" transform="translate(-2.09 -4.15)"/><path class="cls-7" d="M384,45.91l-3.08,9.33h-4L387,25.58h4.62l10.12,29.66h-4.1l-3.17-9.33Zm9.72-3-2.95-8.54c-.62-1.94-1.06-3.7-1.5-5.41h-.13c-.4,1.71-.88,3.57-1.45,5.37l-2.9,8.58Z" transform="translate(-2.09 -4.15)"/><path class="cls-7" d="M224.4,101a18.84,18.84,0,0,1-7.84,1.41c-8.36,0-14.61-5.28-14.61-15,0-9.33,6.3-15.58,15.5-15.58a16.06,16.06,0,0,1,7,1.32l-1,3.13A13.55,13.55,0,0,0,217.58,75c-7,0-11.57,4.45-11.57,12.24,0,7.3,4.18,11.92,11.35,11.92a15.32,15.32,0,0,0,6.29-1.23Z" transform="translate(-2.09 -4.15)"/><path class="cls-7" d="M239.76,102.43c-7.88,0-13.34-6.07-13.34-15,0-9.42,5.81-15.58,13.73-15.58,8.14,0,13.37,6.2,13.37,15,0,10.17-6.21,15.62-13.73,15.62Zm.18-3.12c6.07,0,9.5-5.59,9.5-12.32,0-5.9-3.08-12.06-9.46-12.06s-9.55,5.95-9.55,12.37c0,6.25,3.43,12,9.46,12Z" transform="translate(-2.09 -4.15)"/><path class="cls-7" d="M283.51,88.92c-.22-4.14-.48-9.15-.48-12.81h-.09c-1.06,3.44-2.24,7.18-3.74,11.27L274,101.77h-2.9l-4.84-14.12c-1.41-4.23-2.56-8-3.39-11.54h-.09c-.09,3.7-.31,8.62-.57,13.12l-.78,12.72h-3.66l2.07-29.66h4.88l5.06,14.35c1.23,3.65,2.2,6.91,3,10h.09c.79-3,1.84-6.25,3.16-10l5.29-14.35h4.88L288,101.94h-3.79Z" transform="translate(-2.09 -4.15)"/><path class="cls-7" d="M318.89,88.92c-.22-4.14-.49-9.15-.49-12.81h-.09c-1.05,3.44-2.24,7.18-3.74,11.27l-5.24,14.39h-2.9l-4.85-14.12c-1.41-4.23-2.55-8-3.39-11.54h-.08c-.09,3.7-.31,8.62-.57,13.12l-.79,12.72H293.1l2.07-29.66h4.89l5.06,14.35c1.23,3.65,2.2,6.91,3,10h.09c.79-3,1.86-6.25,3.17-10l5.28-14.35h4.88l1.85,29.66h-3.79Z" transform="translate(-2.09 -4.15)"/><path class="cls-7" d="M333.11,72.28v17.6c0,6.6,2.94,9.42,6.91,9.42,4.36,0,7.22-2.91,7.22-9.42V72.28h3.88V89.62c0,9.11-4.8,12.8-11.22,12.8-6.08,0-10.66-3.43-10.66-12.67V72.28Z" transform="translate(-2.09 -4.15)"/><path class="cls-7" d="M357.75,101.94V72.28H362l9.46,15a79.08,79.08,0,0,1,5.28,9.64l.14,0c-.36-4-.44-7.57-.44-12.15V72.28H380v29.66h-3.87l-9.42-15a85.35,85.35,0,0,1-5.5-9.9l-.14,0c.23,3.74.27,7.3.27,12.23v12.67Z" transform="translate(-2.09 -4.15)"/><path class="cls-7" d="M390.53,72.28v29.66h-3.87V72.28Z" transform="translate(-2.09 -4.15)"/><path class="cls-7" d="M402.85,75.54h-9V72.28h22v3.26h-9.07v26.4h-3.87Z" transform="translate(-2.09 -4.15)"/><path class="cls-7" d="M427.32,101.94V89.36L417.9,72.28h4.4l4.18,8.19c1.1,2.24,2,4,2.94,6.11h.09c.79-1.93,1.84-3.87,3-6.11l4.26-8.19h4.32l-9.9,17v12.63Z" transform="translate(-2.09 -4.15)"/><path class="cls-7" d="M204.29,119.22h16v3.21h-12.1v9.86h11.18v3.16H208.16v13.43h-3.87Z" transform="translate(-2.09 -4.15)"/><path class="cls-7" d="M237.34,149.37c-7.88,0-13.34-6.07-13.34-15,0-9.42,5.81-15.58,13.73-15.58,8.14,0,13.38,6.21,13.38,15,0,10.17-6.21,15.62-13.73,15.62Zm.18-3.13c6.07,0,9.5-5.59,9.5-12.32,0-5.9-3.08-12.06-9.46-12.06S228,127.81,228,134.23c0,6.25,3.43,12,9.46,12Z" transform="translate(-2.09 -4.15)"/><path class="cls-7" d="M259.92,119.22v17.6c0,6.6,2.95,9.42,6.91,9.42,4.36,0,7.22-2.9,7.22-9.42v-17.6h3.87v17.34c0,9.11-4.8,12.81-11.22,12.81-6.07,0-10.65-3.43-10.65-12.68V119.22Z" transform="translate(-2.09 -4.15)"/><path class="cls-7" d="M284.56,148.89V119.22h4.22l9.46,15a79.74,79.74,0,0,1,5.28,9.64l.14,0c-.35-4-.44-7.57-.44-12.15V119.22h3.61v29.66H303l-9.42-15.05a85.59,85.59,0,0,1-5.5-9.9l-.14,0c.22,3.75.27,7.31.27,12.24v12.68Z" transform="translate(-2.09 -4.15)"/><path class="cls-7" d="M313.48,119.62a56.3,56.3,0,0,1,8.18-.61c5.5,0,9.42,1.23,12,3.65s4.22,5.9,4.22,10.69-1.54,8.8-4.26,11.53-7.39,4.27-13.16,4.27a53.43,53.43,0,0,1-7-.36Zm3.87,26.28a25.3,25.3,0,0,0,3.88.17c8.18.05,12.63-4.57,12.63-12.58,0-7.08-3.91-11.44-12-11.44a22,22,0,0,0-4.49.4Z" transform="translate(-2.09 -4.15)"/><path class="cls-7" d="M347.63,139.56l-3.08,9.33h-4l10.08-29.66h4.62l10.12,29.66h-4.1l-3.17-9.33Zm9.72-3L354.41,128c-.62-1.93-1.06-3.69-1.5-5.41h-.13c-.4,1.72-.88,3.56-1.46,5.37l-2.9,8.58Z" transform="translate(-2.09 -4.15)"/><path class="cls-7" d="M371.93,122.49h-9v-3.26h22v3.26H375.8v26.4h-3.87Z" transform="translate(-2.09 -4.15)"/><path class="cls-7" d="M392,119.22v29.66h-3.87V119.22Z" transform="translate(-2.09 -4.15)"/><path class="cls-7" d="M410.26,149.37c-7.88,0-13.34-6.07-13.34-15,0-9.42,5.81-15.58,13.74-15.58,8.14,0,13.38,6.21,13.38,15,0,10.17-6.21,15.62-13.73,15.62Zm.17-3.13c6.07,0,9.5-5.59,9.5-12.32,0-5.9-3.07-12.06-9.46-12.06s-9.55,5.94-9.55,12.37c0,6.25,3.44,12,9.47,12Z" transform="translate(-2.09 -4.15)"/><path class="cls-7" d="M429,148.89V119.22h4.22l9.46,15a79.2,79.2,0,0,1,5.28,9.64l.14,0c-.35-4-.44-7.57-.44-12.15V119.22h3.61v29.66H447.4L438,133.84a84.89,84.89,0,0,1-5.5-9.9l-.14,0c.22,3.75.27,7.31.27,12.24v12.68Z" transform="translate(-2.09 -4.15)"/></svg>